<?xml version="1.0" encoding="utf-8"?>
<!-- Generator: Adobe Illustrator 17.0.0, SVG Export Plug-In . SVG Version: 6.00 Build 0)  -->
<!DOCTYPE svg PUBLIC "-//W3C//DTD SVG 1.1//EN" "http://www.w3.org/Graphics/SVG/1.1/DTD/svg11.dtd">
<svg version="1.1" id="Layer_1" xmlns="http://www.w3.org/2000/svg" xmlns:xlink="http://www.w3.org/1999/xlink" x="0px" y="0px"
	 width="375px" height="113.5px" viewBox="0 0 375 113.5" enable-background="new 0 0 375 113.5" xml:space="preserve">
<path fill="#F6BD3A" d="M46.582,61.37l13.642-7.916l13.44,7.916l-13.44,7.748l-13.642-7.58V61.37z M5.65,37.957L60.251,6.96
	l40.59,23.077L87.401,53.45L60.285,37.953L19.359,61.198L5.65,37.957z"/>
<path fill="#EB8C23" d="M46.582,92.36V76.863l13.44-7.748l13.642-7.748v15.497l-13.44,7.748v15.497l-13.642,7.916V92.36z
	 M46.582,61.37l-13.642-7.748l-13.642,7.58v-15.5l40.926-23.245V53.45L46.582,61.37z M87.172,45.705v-7.748l13.642-7.916
	l0.168,15.497L87.34,53.453L87.172,45.705z"/>
<path fill="#E35A2B" d="M32.934,99.772V53.621l13.44-7.58l0.168,15.329l13.642,7.58v15.665L46.542,77.37v30.654L32.934,99.772z
	 M12.39,57.16l-6.74-4.042V37.963l13.642,7.748v15.497L12.39,57.16z M60.224,37.957V22.46l26.948,15.497l0.168,15.497L60.224,37.957
	z"/>
<path fill="#EF6639" d="M127.201,43.309v35.617h-6.26V43.309h-12.163v-6.142h30.577v6.139L127.201,43.309z M160.079,56.246
	c0.383,1.549,0.554,3.143,0.507,4.738l-20.197,5.988c0.158,1.512,0.114,0.897,0.588,1.972c0.474,1.075,1.075,1.956,1.788,2.688
	c0.712,0.732,1.512,1.21,2.352,1.546c0.84,0.336,1.804,0.511,2.742,0.504c1.344,0,2.513-0.218,3.605-0.655
	c1.143-0.466,2.216-1.088,3.189-1.848l3.636,3.931c-1.345,1.298-2.922,2.33-4.65,3.041c-1.714,0.716-3.757,1.075-6.139,1.075
	c-1.794,0.007-3.569-0.358-5.215-1.072c-1.68-0.716-3.091-1.767-4.321-3.158c-1.23-1.391-2.204-3.098-2.923-5.127
	c-0.719-2.029-1.075-4.368-1.075-6.915c0-2.661,0.336-5.04,1.015-7.033c0.679-1.993,1.613-3.696,2.802-5.097
	c1.18-1.362,2.659-2.432,4.321-3.128c1.767-0.73,3.663-1.095,5.574-1.072c2.224,0,4.166,0.417,5.813,1.253
	c1.646,0.837,3.024,1.969,4.113,3.36c1.132,1.506,1.962,3.218,2.443,5.04L160.079,56.246z M154.209,57.657
	c-0.081-1.075-0.82-2.352-1.431-3.202c-0.576-0.759-1.349-1.347-2.234-1.7c-0.914-0.363-2.157-0.514-3.249-0.47
	c-2.016,0.091-4.368,0.8-5.484,2.352c-1.116,1.552-1.468,4.244-1.425,7.113L154.209,57.657z M182.76,78.536V60.829
	c0-3.179-0.571-5.376-1.7-6.676c-1.129-1.3-2.712-1.909-4.704-1.909c-2.066,0-3.656,0.696-4.771,2.083
	c-1.116,1.388-1.67,3.36-1.67,5.9v18.299h-6.172V47.244h6.139v2.98c0.796-1.153,1.898-2.016,3.31-2.681
	c1.411-0.665,2.93-0.954,4.56-0.954c3.656,0,6.428,1.176,8.316,3.518c1.888,2.342,2.833,5.847,2.833,10.49V78.54h-6.139V78.536z
	 M214.116,70.311c0,1.747-0.329,3.209-0.984,4.382c-0.624,1.139-1.514,2.111-2.594,2.833c-1.075,0.716-2.352,1.233-3.696,1.546
	c-1.458,0.323-2.948,0.483-4.442,0.477c-2.15,0-4.281-0.376-6.408-1.132c-1.986-0.683-3.863-1.647-5.574-2.863l2.769-4.617
	c1.397,0.996,2.933,1.78,4.56,2.325c1.569,0.517,3.091,0.773,4.56,0.773c3.814,0,5.722-1.153,5.722-3.461
	c0-1.193-0.645-2.15-1.935-2.856s-3.071-1.512-5.336-2.352c-1.465-0.541-2.889-1.188-4.261-1.935
	c-1.169-0.659-2.127-1.361-2.863-2.117c-0.71-0.715-1.249-1.581-1.579-2.533c-0.319-0.934-0.477-2.016-0.477-3.249
	c0-1.391,0.259-2.621,0.773-3.696c0.506-1.06,1.262-1.98,2.204-2.681c0.954-0.716,2.083-1.253,3.36-1.613
	c1.277-0.36,2.742-0.538,4.291-0.538c2.016,0,3.904,0.319,5.752,0.954c1.848,0.635,3.468,1.472,4.859,2.503l-2.638,4.684
	c-1.27-0.914-2.564-1.589-3.874-2.026s-2.688-0.655-4.234-0.655c-1.546,0-2.604,0.269-3.279,0.806
	c-0.649,0.483-1.026,1.248-1.015,2.056c-0.004,0.381,0.078,0.757,0.239,1.102c0.158,0.336,0.457,0.685,0.894,1.008
	c0.546,0.427,1.135,0.796,1.757,1.102c0.943,0.47,1.908,0.897,2.89,1.28l4.59,1.939c1.194,0.541,2.307,1.243,3.31,2.087
	c0.866,0.737,1.549,1.666,1.996,2.712c0.437,1.032,0.655,2.285,0.655,3.757L214.116,70.311z M242.67,63.097
	c0,2.587-0.356,4.899-1.075,6.945c-0.719,2.046-1.68,3.777-2.98,5.185c-1.237,1.386-2.762,2.485-4.469,3.219
	c-1.68,0.739-3.575,1.102-5.605,1.102c-2.016,0-3.814-0.386-5.484-1.163c-1.671-0.779-3.155-1.908-4.351-3.31
	c-1.233-1.428-2.194-3.138-2.89-5.127s-1.008-4.214-1.008-6.676c0-2.544,0.356-4.828,1.075-6.855c0.719-2.026,1.7-3.746,2.95-5.158
	c1.208-1.394,2.716-2.494,4.412-3.219c1.724-0.732,3.528-1.102,5.511-1.102c1.91-0.016,3.801,0.381,5.544,1.163
	c1.691,0.762,3.204,1.868,4.442,3.249c1.253,1.391,2.224,3.091,2.923,5.097c0.699,2.006,1.008,4.224,1.008,6.646L242.67,63.097z
	 M236.47,63.275c0-3.219-0.672-5.773-2.117-7.661c-1.445-1.888-3.367-2.833-5.87-2.833c-2.204-0.077-4.29,0.996-5.511,2.833
	c-1.327,1.892-1.996,4.382-1.996,7.483c0,3.461,0.716,6.088,2.15,7.896c1.338,1.766,3.447,2.776,5.662,2.712
	c1.153,0,2.204-0.279,3.158-0.833c0.962-0.565,1.795-1.326,2.443-2.234c0.708-1.003,1.232-2.124,1.549-3.31
	c0.356-1.27,0.538-2.621,0.538-4.052L236.47,63.275z M262.461,54.095c-0.663-0.352-1.363-0.632-2.087-0.833
	c-0.716-0.202-1.589-0.336-2.621-0.336c-1.949,0-3.461,0.672-4.529,2.026c-1.069,1.354-1.613,3.36-1.613,6.021v17.882h-6.139V47.56
	h6.139v2.98c0.769-1.081,1.779-1.969,2.95-2.594c1.288-0.704,2.736-1.063,4.203-1.042c1.27,0,2.352,0.111,3.125,0.329
	c0.775,0.203,1.51,0.536,2.174,0.984l-1.613,5.847L262.461,54.095z"/>
<path fill="#A6A7A9" d="M272.769,43.309v10.91h11.982v6.139h-11.982v18.538h-6.26V37.167h26.881v6.139L272.769,43.309z
	 M294.408,78.892V38.659l6.139-3.219v43.459L294.408,78.892z M331.907,63.1c0,2.587-0.36,4.899-1.075,6.945s-1.714,3.777-2.98,5.185
	c-1.238,1.387-2.764,2.485-4.472,3.219c-1.714,0.739-3.575,1.102-5.605,1.102c-1.982,0-3.814-0.386-5.484-1.163
	c-1.67-0.776-3.118-1.882-4.351-3.31c-1.233-1.428-2.194-3.138-2.89-5.127c-0.696-1.989-1.008-4.214-1.008-6.676
	c0-2.544,0.356-4.828,1.075-6.855c0.719-2.026,1.7-3.746,2.95-5.158c1.25-1.411,2.688-2.486,4.412-3.219
	c1.724-0.732,3.528-1.102,5.511-1.102c1.982,0,3.83,0.386,5.544,1.163c1.691,0.762,3.204,1.868,4.442,3.249
	c1.253,1.391,2.224,3.091,2.923,5.097c0.699,2.006,1.008,4.224,1.008,6.646L331.907,63.1z M325.707,63.278
	c0-3.219-0.672-5.773-2.117-7.661c-1.445-1.888-3.367-2.833-5.87-2.833c-2.345,0-4.183,0.941-5.51,2.833
	c-1.327,1.892-1.996,4.382-1.996,7.483c0,3.461,0.716,6.088,2.15,7.896c1.338,1.766,3.447,2.776,5.662,2.712
	c1.109,0.012,2.2-0.276,3.158-0.833c0.962-0.565,1.795-1.326,2.443-2.234c0.672-0.934,1.193-2.036,1.546-3.31
	c0.353-1.273,0.538-2.621,0.538-4.052L325.707,63.278z M362.188,78.896h-5.242l-4.234-15.792l-0.924-3.662l-0.685-3.011
	l-0.685,3.041l-0.924,3.696l-4.173,15.739h-5.242l-8.585-31.296h6.048l3.696,15.201l0.894,3.757l0.655,3.101l0.773-3.101
	l0.954-3.757l4.173-15.201h4.949l4.234,15.261l0.924,3.73l0.746,3.071l0.685-3.125l0.864-3.73l3.696-15.201h6.048L362.188,78.896z"
	/>
</svg>
